<?xml version="1.0" standalone="no"?>
<!DOCTYPE svg PUBLIC "-//W3C//DTD SVG 20010904//EN"
 "http://www.w3.org/TR/2001/REC-SVG-20010904/DTD/svg10.dtd">
<svg version="1.0" xmlns="http://www.w3.org/2000/svg"
 width="380.000000pt" height="120.000000pt" viewBox="0 0 380.000000 120.000000"
 preserveAspectRatio="xMidYMid meet">

<g transform="translate(0.000000,120.000000) scale(0.100000,-0.100000)"
fill="#000000" stroke="none">
<path d="M680 1049 c-19 -12 -37 -25 -40 -30 -3 -4 -26 -1 -51 8 -45 16 -47
16 -95 -8 -33 -16 -54 -35 -64 -56 -10 -22 -22 -33 -37 -33 -39 0 -70 -21 -93
-62 -18 -33 -22 -50 -17 -94 5 -52 5 -54 -18 -54 -13 0 -26 -3 -29 -8 -2 -4 0
-57 4 -117 8 -91 14 -119 40 -169 32 -64 99 -127 173 -162 30 -15 36 -22 30
-38 -3 -12 -7 -30 -7 -41 -1 -19 6 -20 243 -23 l244 -2 -6 39 -5 40 65 38 c36
21 89 64 118 96 65 72 88 137 89 257 1 85 1 85 -26 88 -23 3 -28 10 -37 53
-33 151 -145 249 -284 249 -29 0 -46 6 -63 25 -29 32 -85 33 -134 4z m118 -39
c10 -18 12 -56 8 -140 -5 -144 -8 -150 -57 -150 -39 0 -39 0 -39 41 0 46 -25
150 -45 190 -17 31 -7 49 40 74 41 21 77 15 93 -15z m-194 -29 c27 -23 53 -85
66 -159 16 -93 11 -102 -61 -102 -39 0 -61 4 -63 13 -2 6 -9 30 -15 53 -6 23
-27 62 -46 87 -42 55 -43 66 -9 100 39 39 88 43 128 8z m353 -7 c101 -34 148
-95 177 -226 6 -26 4 -28 -28 -28 -30 0 -34 4 -40 32 -16 82 -95 148 -182 151
l-44 2 0 43 c0 41 1 42 35 42 19 0 56 -7 82 -16z m-505 -111 c34 -37 58 -87
58 -124 0 -17 -9 -19 -90 -19 -89 0 -91 0 -101 28 -17 42 -4 103 26 129 37 33
65 29 107 -14z m504 -9 c35 -17 84 -85 84 -117 0 -15 -14 -17 -108 -17 l-108
0 10 75 9 75 40 0 c21 0 54 -7 73 -16z m244 -222 c0 -119 -50 -215 -153 -291
-76 -55 -116 -74 -171 -81 -64 -7 -75 -30 -14 -30 41 0 68 -13 68 -32 0 -4
-97 -8 -215 -8 -213 0 -216 0 -205 20 10 18 21 20 111 20 76 0 100 3 97 13 -3
8 -37 14 -104 17 -86 4 -106 9 -153 35 -136 75 -181 146 -189 298 l-5 97 467
0 466 0 0 -58z"/>
<path d="M3467 693 c-4 -3 -7 -44 -7 -91 0 -76 -2 -83 -17 -76 -36 15 -91 16
-120 0 -60 -30 -86 -152 -49 -224 30 -58 109 -79 166 -45 26 15 29 15 45 -1
10 -9 24 -15 32 -12 8 3 15 6 16 6 1 0 0 98 -1 217 -3 151 -7 220 -15 225 -15
10 -42 10 -50 1z m-32 -238 c19 -18 25 -35 25 -65 0 -46 -34 -90 -69 -90 -30
0 -61 47 -61 92 0 42 34 88 65 88 9 0 27 -11 40 -25z"/>
<path d="M1393 634 c-10 -4 -13 -53 -13 -195 0 -221 -15 -202 150 -197 l105 3
0 30 0 30 -87 3 -88 3 0 49 0 50 70 0 70 0 0 30 0 30 -70 0 -70 0 0 50 0 49
88 3 87 3 0 30 0 30 -115 2 c-63 1 -121 -1 -127 -3z"/>
<path d="M2321 627 c-8 -10 -11 -67 -9 -192 3 -157 5 -179 21 -189 34 -21 52
4 55 78 l3 66 65 0 65 0 -3 33 c-3 32 -3 32 -65 35 l-63 3 0 54 0 55 81 0 80
0 -3 33 -3 32 -106 3 c-82 2 -109 -1 -118 -11z"/>
<path d="M1887 584 c-3 -4 -3 -20 0 -36 6 -29 5 -30 -17 -18 -14 7 -43 10 -73
7 -41 -3 -56 -11 -79 -36 -42 -47 -39 -94 11 -141 l38 -37 -38 -41 c-46 -48
-52 -93 -18 -135 41 -53 152 -58 208 -11 73 61 30 153 -71 154 l-33 1 23 17
c68 50 83 68 97 125 18 70 19 129 3 145 -13 13 -41 16 -51 6z m-37 -122 c47
-38 -13 -102 -65 -68 -28 19 -32 47 -9 70 20 21 47 20 74 -2z m4 -232 c29 -11
35 -44 10 -54 -20 -8 -68 -8 -88 0 -25 10 -20 52 7 57 39 7 45 7 71 -3z"/>
<path d="M1984 525 c-4 -9 3 -38 15 -65 12 -27 35 -86 51 -131 l30 -82 -41
-55 -42 -55 22 -18 c30 -25 44 -17 90 54 49 75 80 145 115 256 28 87 25 111
-14 111 -25 0 -37 -19 -50 -75 -16 -75 -32 -125 -40 -125 -3 0 -19 39 -34 88
-16 48 -33 93 -38 100 -14 17 -57 15 -64 -3z"/>
<path d="M2670 533 c-8 -3 -26 -15 -38 -27 -77 -69 -67 -201 19 -248 48 -27
129 -20 165 13 75 69 69 202 -10 250 -30 18 -102 24 -136 12z m84 -64 c35 -16
51 -68 36 -115 -23 -68 -99 -72 -127 -7 -25 61 5 127 59 132 4 1 18 -4 32 -10z"/>
<path d="M2993 524 c-97 -48 -99 -219 -4 -269 64 -33 158 -10 195 48 46 70 21
188 -47 220 -44 21 -102 21 -144 1z m111 -65 c22 -17 26 -28 26 -69 0 -53 -15
-76 -56 -86 -31 -8 -72 18 -80 51 -10 39 4 93 29 110 29 20 49 19 81 -6z"/>
</g>
</svg>
