<?xml version="1.0" standalone="no"?>
<!DOCTYPE svg PUBLIC "-//W3C//DTD SVG 20010904//EN"
 "http://www.w3.org/TR/2001/REC-SVG-20010904/DTD/svg10.dtd">
<svg version="1.0" xmlns="http://www.w3.org/2000/svg"
 width="380.000000pt" height="120.000000pt" viewBox="0 0 380.000000 120.000000"
 preserveAspectRatio="xMidYMid meet">

<g transform="translate(0.000000,120.000000) scale(0.100000,-0.100000)"
fill="#000000" stroke="none">
<path d="M730 1051 c-38 -12 -88 -39 -92 -51 -2 -7 -15 -5 -37 6 -42 21 -92
13 -137 -21 -19 -14 -37 -37 -40 -50 -5 -21 -12 -25 -41 -25 -36 0 -77 -34
-94 -78 -12 -31 -11 -89 1 -113 10 -17 7 -19 -19 -19 -16 0 -32 -3 -35 -8 -2
-4 0 -56 4 -116 7 -84 15 -121 35 -161 30 -63 93 -124 165 -160 40 -20 50 -30
45 -43 -19 -44 -17 -61 6 -67 13 -3 123 -4 244 -3 l220 3 -2 41 c-1 40 0 42
50 65 29 13 79 51 113 85 77 77 103 141 111 272 l6 92 -31 0 c-28 0 -31 3 -41
51 -32 150 -124 236 -261 247 -51 4 -69 9 -85 27 -24 28 -51 36 -85 26z m70
-61 c9 -22 11 -63 7 -138 -8 -145 -11 -152 -57 -152 l-37 0 -6 69 c-3 39 -16
96 -29 129 -14 32 -22 64 -20 71 7 21 65 51 98 51 26 0 34 -6 44 -30z m-204
-15 c12 -8 29 -30 38 -50 23 -48 49 -174 41 -203 -5 -21 -10 -23 -67 -20 l-61
3 -12 47 c-10 40 -32 79 -80 144 -13 17 12 62 45 79 33 19 71 19 96 0z m401
-33 c68 -35 120 -112 137 -204 l7 -38 -36 0 c-28 0 -35 4 -35 19 0 82 -101
171 -195 171 -34 0 -35 1 -35 41 l0 42 58 -6 c32 -2 77 -14 99 -25z m-545 -94
c35 -38 58 -86 58 -123 0 -25 0 -25 -89 -25 l-89 0 -12 30 c-27 65 14 150 72
150 20 0 39 -10 60 -32z m512 -16 c32 -19 76 -84 76 -114 0 -16 -12 -18 -108
-18 l-108 0 10 81 9 81 45 -6 c25 -3 59 -14 76 -24z m234 -239 c-6 -99 -35
-161 -105 -229 -68 -66 -177 -124 -232 -124 -30 0 -41 -4 -41 -15 0 -11 12
-15 49 -15 34 0 51 -4 55 -15 5 -13 -22 -15 -205 -15 -164 0 -210 3 -207 13 3
8 37 14 101 17 55 3 97 9 97 15 0 6 -41 12 -92 15 -80 4 -102 10 -156 38 -131
68 -183 150 -190 300 l-4 92 467 0 468 0 -5 -77z"/>
<path d="M3467 883 c-4 -3 -7 -44 -7 -91 0 -76 -2 -83 -17 -77 -65 28 -131 11
-164 -42 -27 -43 -30 -134 -5 -180 30 -59 108 -80 166 -46 26 15 29 15 45 -1
10 -9 24 -15 32 -12 8 3 15 6 16 6 1 0 0 98 -1 217 -3 151 -7 220 -15 225 -15
10 -42 10 -50 1z m-32 -238 c19 -18 25 -35 25 -65 0 -46 -34 -90 -69 -90 -30
0 -61 47 -61 92 0 42 34 88 65 88 9 0 27 -11 40 -25z"/>
<path d="M1393 824 c-10 -4 -13 -53 -13 -195 0 -221 -15 -202 150 -197 l105 3
0 30 0 30 -87 3 -88 3 0 49 0 50 70 0 70 0 0 30 0 30 -70 0 -70 0 0 50 0 49
88 3 87 3 0 30 0 30 -115 2 c-63 1 -121 -1 -127 -3z"/>
<path d="M2321 817 c-8 -10 -11 -67 -9 -192 3 -157 5 -179 21 -189 34 -21 52
4 55 78 l3 66 65 0 65 0 -3 33 c-3 32 -3 32 -65 35 l-63 3 0 54 0 55 81 0 80
0 -3 33 -3 32 -106 3 c-82 2 -109 -1 -118 -11z"/>
<path d="M1887 774 c-3 -4 -3 -20 0 -36 6 -29 5 -30 -17 -18 -14 7 -43 10 -73
7 -41 -3 -56 -11 -79 -36 -42 -47 -39 -94 11 -141 l38 -37 -38 -41 c-46 -48
-52 -93 -18 -135 41 -53 152 -58 208 -11 73 61 30 153 -71 154 l-33 1 23 17
c68 50 83 68 97 125 18 70 19 129 3 145 -13 13 -41 16 -51 6z m-37 -124 c11
-11 20 -24 20 -30 0 -14 -38 -50 -53 -50 -22 0 -57 30 -57 50 0 24 26 50 51
50 10 0 28 -9 39 -20z m23 -237 c13 -8 7 -41 -9 -47 -20 -8 -68 -8 -88 0 -25
10 -20 52 7 57 22 4 75 -1 90 -10z"/>
<path d="M1984 715 c-3 -8 10 -55 30 -105 20 -49 43 -109 51 -131 l15 -42 -42
-55 -42 -54 22 -19 c13 -10 29 -16 37 -13 38 15 137 208 176 344 16 55 17 66
5 79 -9 8 -24 11 -39 7 -19 -4 -26 -15 -31 -43 -11 -62 -38 -153 -45 -153 -4
0 -20 39 -35 88 -16 48 -33 93 -38 100 -14 17 -57 15 -64 -3z"/>
<path d="M2670 723 c-8 -3 -26 -15 -38 -27 -77 -69 -67 -201 19 -248 48 -27
129 -20 165 13 75 68 70 201 -8 249 -32 19 -102 26 -138 13z m84 -64 c35 -16
51 -68 36 -115 -23 -68 -99 -72 -127 -7 -25 61 5 127 59 132 4 1 18 -4 32 -10z"/>
<path d="M2993 714 c-97 -48 -99 -219 -4 -269 64 -33 158 -10 195 48 46 70 21
188 -47 220 -44 21 -102 21 -144 1z m111 -65 c22 -17 26 -28 26 -69 0 -53 -15
-76 -56 -86 -31 -8 -72 18 -80 51 -10 39 4 93 29 110 29 20 49 19 81 -6z"/>
</g>
</svg>
